<svg width="24" height="24" viewBox="0 0 24 24" fill="none" xmlns="http://www.w3.org/2000/svg">
<mask id="mask0_9_365" style="mask-type:alpha" maskUnits="userSpaceOnUse" x="0" y="0" width="24" height="24">
<rect width="24" height="24" fill="#D9D9D9"/>
</mask>
<g mask="url(#mask0_9_365)">
<path d="M16.65 15C17.2 15.0333 17.7458 15.0042 18.2875 14.9125C18.8292 14.8208 19.35 14.6667 19.85 14.45C19.5 16.6333 18.4917 18.4375 16.825 19.8625C15.1583 21.2875 13.2167 22 11 22C9.75 22 8.57917 21.7625 7.4875 21.2875C6.39583 20.8125 5.44583 20.1708 4.6375 19.3625C3.82917 18.5542 3.1875 17.6042 2.7125 16.5125C2.2375 15.4208 2 14.25 2 13C2 10.7833 2.7125 8.84167 4.1375 7.175C5.5625 5.50833 7.36667 4.5 9.55 4.15C9.33333 4.65 9.17917 5.17083 9.0875 5.7125C8.99583 6.25417 8.96667 6.8 9 7.35C7.8 7.76667 6.83333 8.49167 6.1 9.525C5.36667 10.5583 5 11.7167 5 13C5 14.6667 5.58333 16.0833 6.75 17.25C7.91667 18.4167 9.33333 19 11 19C12.2833 19 13.4417 18.6333 14.475 17.9C15.5083 17.1667 16.2333 16.2 16.65 15ZM17 1C18.6667 1 20.0833 1.58333 21.25 2.75C22.4167 3.91667 23 5.33333 23 7C23 8.66667 22.4167 10.0833 21.25 11.25C20.0833 12.4167 18.6667 13 17 13C15.3333 13 13.9167 12.4167 12.75 11.25C11.5833 10.0833 11 8.66667 11 7C11 5.33333 11.5833 3.91667 12.75 2.75C13.9167 1.58333 15.3333 1 17 1ZM17 10C17.8333 10 18.5417 9.70833 19.125 9.125C19.7083 8.54167 20 7.83333 20 7C20 6.16667 19.7083 5.45833 19.125 4.875C18.5417 4.29167 17.8333 4 17 4C16.1667 4 15.4583 4.29167 14.875 4.875C14.2917 5.45833 14 6.16667 14 7C14 7.83333 14.2917 8.54167 14.875 9.125C15.4583 9.70833 16.1667 10 17 10Z" fill="#006699"/>
</g>
</svg>
