<svg width="64" height="64" viewBox="0 0 64 64" fill="none" xmlns="http://www.w3.org/2000/svg">
<g clip-path="url(#clip0_80_59)">
<rect width="64" height="64" rx="32" fill="url(#paint0_linear_80_59)"/>
<path d="M-6.28174 45L2.72705 13.7988H9.53857L18.5474 45H12.9443L6.33057 19.8853H5.93506L-0.678711 45H-6.28174ZM-1.88721 38.4082V33.5303H13.9331V38.4082H-1.88721ZM31.2915 34.9805L29.9292 27.2461H31.8628C32.1118 23.2617 34.1553 21.2695 37.9932 21.2695C40.2783 21.2695 41.9922 22.0312 43.1348 23.5547C44.2773 25.0781 44.8486 27.3779 44.8486 30.4541H39.4434C39.4434 28.9453 39.187 27.8613 38.6743 27.2021C38.1763 26.543 37.3706 26.2134 36.2573 26.2134C34.5874 26.2134 33.3423 26.9751 32.522 28.4985C31.7017 30.022 31.2915 32.1826 31.2915 34.9805ZM20.8545 45V40.2979H36.8506V45H20.8545ZM25.8862 45V21.709H30.4126L31.2915 28.3887V45H25.8862ZM21.7334 26.4111V21.709H30.105L30.5444 26.4111H21.7334ZM62.1191 45.4395C52.2754 45.4395 47.3535 40.0781 47.3535 29.3555C47.3535 24.2725 48.5913 20.3394 51.0669 17.5562C53.5571 14.7583 57.0654 13.3594 61.5918 13.3594C63.6865 13.3594 65.5322 13.6963 67.1289 14.3701C68.7256 15.0439 69.9194 16.0034 70.7104 17.2485L67.4585 21.0938C66.7993 20.2002 65.957 19.5117 64.9316 19.0283C63.9209 18.5449 62.8223 18.3032 61.6357 18.3032C58.999 18.3032 56.8823 19.248 55.2856 21.1377C53.689 23.0127 52.8906 25.6787 52.8906 29.1357C52.8906 36.709 56.2158 40.4956 62.8662 40.4956C64.9902 40.4956 67.085 40.0562 69.1504 39.1772L70.1611 43.9453C67.6123 44.9414 64.9316 45.4395 62.1191 45.4395Z" fill="url(#paint1_linear_80_59)" fill-opacity="0.13"/>
<path d="M24.4531 37.0078L14.707 33.2578V30.8945L24.4531 27.1445V29.5859L17.1289 31.9883V32.1641L24.4531 34.5664V37.0078ZM26.1836 39L35.8236 24.4H38.8236L29.1436 39H26.1836ZM40.5469 37.0078V34.5664L47.6758 32.1641V31.9883L40.5469 29.5859V27.1445L50.293 30.8945V33.2578L40.5469 37.0078Z" fill="url(#paint2_linear_80_59)"/>
</g>
<defs>
<linearGradient id="paint0_linear_80_59" x1="58.5" y1="-42" x2="32" y2="64" gradientUnits="userSpaceOnUse">
<stop stop-color="#24367A" stop-opacity="0.981731"/>
<stop offset="0.490385" stop-color="#006699"/>
<stop offset="1" stop-color="#3C2A80" stop-opacity="0.96"/>
</linearGradient>
<linearGradient id="paint1_linear_80_59" x1="103" y1="-9.50001" x2="12.5" y2="49.5" gradientUnits="userSpaceOnUse">
<stop stop-color="#0094DE"/>
<stop offset="0.181142"/>
<stop offset="1" stop-color="#F8F8F8"/>
</linearGradient>
<linearGradient id="paint2_linear_80_59" x1="103" y1="-6.50001" x2="12.5" y2="52.5" gradientUnits="userSpaceOnUse">
<stop stop-color="#0094DE"/>
<stop offset="0.181142"/>
<stop offset="1" stop-color="#F8F8F8"/>
</linearGradient>
<clipPath id="clip0_80_59">
<rect width="64" height="64" rx="32" fill="white"/>
</clipPath>
</defs>
</svg>
