<svg width="25" height="25" viewBox="0 0 25 25" fill="none" xmlns="http://www.w3.org/2000/svg">
<mask id="mask0_9_342" style="mask-type:alpha" maskUnits="userSpaceOnUse" x="0" y="0" width="25" height="25">
<rect width="25" height="25" fill="#D9D9D9"/>
</mask>
<g mask="url(#mask0_9_342)">
<path d="M5.20833 19.7917V5.20833V17.0313V14.8177V19.7917ZM5.20833 21.875C4.63542 21.875 4.14496 21.671 3.73698 21.263C3.32899 20.855 3.125 20.3646 3.125 19.7917V5.20833C3.125 4.63542 3.32899 4.14497 3.73698 3.73698C4.14496 3.32899 4.63542 3.125 5.20833 3.125H19.7917C20.3646 3.125 20.855 3.32899 21.263 3.73698C21.671 4.14497 21.875 4.63542 21.875 5.20833V13.5417H19.7917V5.20833H5.20833V19.7917H12.5V21.875H5.20833ZM18.0729 22.9167L14.375 19.2188L15.8594 17.7604L18.0729 19.974L22.5 15.5469L23.9583 17.0313L18.0729 22.9167ZM9.07552 13.2422C9.27517 13.0425 9.375 12.7951 9.375 12.5C9.375 12.2049 9.27517 11.9575 9.07552 11.7578C8.87587 11.5582 8.62847 11.4583 8.33333 11.4583C8.03819 11.4583 7.7908 11.5582 7.59114 11.7578C7.39149 11.9575 7.29167 12.2049 7.29167 12.5C7.29167 12.7951 7.39149 13.0425 7.59114 13.2422C7.7908 13.4418 8.03819 13.5417 8.33333 13.5417C8.62847 13.5417 8.87587 13.4418 9.07552 13.2422ZM9.07552 9.07552C9.27517 8.87587 9.375 8.62847 9.375 8.33334C9.375 8.0382 9.27517 7.7908 9.07552 7.59115C8.87587 7.39149 8.62847 7.29167 8.33333 7.29167C8.03819 7.29167 7.7908 7.39149 7.59114 7.59115C7.39149 7.7908 7.29167 8.0382 7.29167 8.33334C7.29167 8.62847 7.39149 8.87587 7.59114 9.07552C7.7908 9.27518 8.03819 9.375 8.33333 9.375C8.62847 9.375 8.87587 9.27518 9.07552 9.07552ZM11.4583 13.5417H17.7083V11.4583H11.4583V13.5417ZM11.4583 9.375H17.7083V7.29167H11.4583V9.375Z" fill="#006699"/>
</g>
</svg>
