<svg width="24" height="24" viewBox="0 0 24 24" fill="none" xmlns="http://www.w3.org/2000/svg">
<mask id="mask0_9_399" style="mask-type:alpha" maskUnits="userSpaceOnUse" x="0" y="0" width="24" height="24">
<rect width="24" height="24" fill="#D9D9D9"/>
</mask>
<g mask="url(#mask0_9_399)">
<path d="M10.9255 14.05L16.6005 8.4L15.1755 6.975L10.9255 11.225L8.80049 9.1L7.40049 10.5L10.9255 14.05ZM1.00049 21V19H23.0005V21H1.00049ZM4.00049 18C3.45049 18 2.97966 17.8042 2.58799 17.4125C2.19632 17.0208 2.00049 16.55 2.00049 16V5C2.00049 4.45 2.19632 3.97917 2.58799 3.5875C2.97966 3.19583 3.45049 3 4.00049 3H20.0005C20.5505 3 21.0213 3.19583 21.413 3.5875C21.8047 3.97917 22.0005 4.45 22.0005 5V16C22.0005 16.55 21.8047 17.0208 21.413 17.4125C21.0213 17.8042 20.5505 18 20.0005 18H4.00049ZM4.00049 16H20.0005V5H4.00049V16Z" fill="#006699"/>
</g>
</svg>
